<svg xmlns="http://www.w3.org/2000/svg" viewBox="0 0 1200 800"><defs><style>.cls-1,.cls-2,.cls-3{fill:none;stroke:#dbecf4;stroke-linejoin:round;}.cls-1,.cls-3{stroke-linecap:round;}.cls-1{stroke-width:2px;}.cls-2,.cls-3{stroke-width:12px;}.cls-4{fill:#dbecf4;}.cls-5{fill:#4c9fc8;opacity:0.1;}.cls-6{fill:#94c5de;}</style></defs><title>blockchain</title><g id="Subline"><path class="cls-1" d="M456.92,21C245.85,21,74.75,192.06,74.75,403.13c0,200.51,162.55,363.06,363.06,363.06,190.49,0,344.91-154.42,344.91-344.91,0-181-146.7-327.66-327.66-327.66C283.14,93.62,143.78,233,143.78,404.9c0,163.32,132.39,295.71,295.71,295.71,155.15,0,280.93-125.77,280.93-280.93,0-147.39-119.49-266.88-266.88-266.88C313.51,152.8,200,266.31,200,406.34c0,133,107.84,240.86,240.86,240.86,126.37,0,228.82-102.45,228.82-228.82,0-120-97.32-217.38-217.38-217.38-114,0-206.51,92.46-206.51,206.51,0,108.35,87.84,196.19,196.19,196.19,102.93,0,186.37-83.45,186.37-186.38a177.05,177.05,0,0,0-177-177"/><path class="cls-1" d="M743.08,779c211.07,0,382.17-171.1,382.17-382.17,0-200.51-162.55-363.06-363.06-363.06-190.49,0-344.91,154.42-344.91,344.91,0,181,146.7,327.66,327.66,327.66,171.92,0,311.28-139.36,311.28-311.28,0-163.32-132.39-295.71-295.71-295.71-155.15,0-280.93,125.77-280.93,280.93,0,147.39,119.49,266.88,266.88,266.88,140,0,253.54-113.51,253.54-253.54,0-133-107.84-240.86-240.86-240.86-126.37,0-228.82,102.45-228.82,228.82C530.32,501.67,627.64,599,747.7,599c114,0,206.51-92.46,206.51-206.51,0-108.35-87.84-196.19-196.19-196.19-102.93,0-186.37,83.45-186.37,186.38A177.05,177.05,0,0,0,748.7,559.73"/><line class="cls-1" x1="612.93" y1="205.61" x2="587.07" y2="594.39"/><line class="cls-1" x1="794.39" y1="412.93" x2="405.61" y2="387.07"/><rect class="cls-1" x="580.38" y="380.38" width="39.23" height="39.23" transform="translate(-114.93 494.19) rotate(-41.2)"/><line class="cls-1" x1="778.25" y1="478.63" x2="421.75" y2="321.37"/><path class="cls-2" d="M572.32,398.16q14.56-13,29.52-25.84"/><path class="cls-3" d="M871.6,614.21A253.44,253.44,0,0,0,1000,393.66c0-133-107.84-240.86-240.86-240.86a227.95,227.95,0,0,0-145.55,52.25"/><path class="cls-3" d="M779.91,388.59c-26.24-41.83-86.4-128.23-166.32-183.54a332.85,332.85,0,0,0-80.7-40.26,286.86,286.86,0,0,0-40.57-9.23,264.63,264.63,0,0,0-38.78-2.76A253.91,253.91,0,0,0,393.43,160"/><path class="cls-3" d="M328.39,185.79A253.45,253.45,0,0,0,200,406.34c0,133,107.84,240.86,240.86,240.86A227.95,227.95,0,0,0,586.41,595"/><path class="cls-3" d="M420.09,411.41c26.24,41.83,86.4,128.23,166.32,183.54a332.85,332.85,0,0,0,80.7,40.26,286.54,286.54,0,0,0,40.57,9.23,264.63,264.63,0,0,0,38.78,2.76A253.91,253.91,0,0,0,806.57,640"/><path class="cls-2" d="M627.68,401.84q-14.56,13-29.52,25.84"/><path class="cls-3" d="M767.25,401.88c9.81-18.09,38.72-26.59,45.31-15.52,2.91,4.87-4.27,14.05-11.36,18.81-6.09,4.08-12.91,6.76-18.61,7"/><path class="cls-4" d="M778.25,487.63c11.58,0,11.6-18,0-18s-11.6,18,0,18Z"/><path class="cls-3" d="M432.75,398.12c-9.81,18.09-38.72,26.59-45.31,15.52-2.91-4.88,4.27-14.05,11.36-18.81,6.09-4.08,12.91-6.76,18.61-7"/><path class="cls-4" d="M421.75,330.37c11.58,0,11.6-18,0-18s-11.6,18,0,18Z"/><path class="cls-3" d="M598.16,427.68c-5.87-6.6-14.94-16.86-25.84-29.52A2216.1,2216.1,0,0,1,393.43,160c-15.44-23.78-36.11-56.64-59.31-96.82.42-2.55,1-8.27-2.45-12.15-4.18-4.72-12.3-4.5-15.14-3.43-19.6,7.39,10.1,131.64,11.86,138.22,13.79,51.36,36.81,121,77.22,201.28.67,1.35,1.35,2.42,1.77,3.16"/><path class="cls-3" d="M601.84,372.32c5.87,6.6,14.94,16.86,25.84,29.52A2216.1,2216.1,0,0,1,806.57,640c15.44,23.78,36.11,56.64,59.31,96.82-.42,2.55-1,8.27,2.45,12.15,4.18,4.72,12.3,4.5,15.14,3.43,19.6-7.39-10.1-131.64-11.87-138.22-13.78-51.36-36.8-121-77.21-201.28-.68-1.35-1.35-2.42-1.77-3.16"/></g><g id="Main"><rect class="cls-5" x="135.92" y="151.9" width="250.86" height="49.71"/><path class="cls-6" d="M221.54,174.17v3.32H161.05V118.87h58.69v3.32H164.51v52Zm-12.6-6.12a206.37,206.37,0,0,0-16-17.64,120.26,120.26,0,0,1-20.16,17.64,21.59,21.59,0,0,0-2.88-2.59,107.81,107.81,0,0,0,20.66-17.35c-6.12-6-12.67-11.88-18.72-16.92l2.59-2c5.91,4.9,12.39,10.66,18.37,16.35a118.28,118.28,0,0,0,13.68-19.16l3.24,1.3a130,130,0,0,1-14.55,20.23,215.71,215.71,0,0,1,16.71,17.72Z"/><path class="cls-6" d="M251.63,157.69c-7.71,3.45-15.7,7-21.82,9.57l-1.37-3.45c2.81-1,6.41-2.45,10.3-4V135.44h-9.22v-3.32h9.22V115.2h3.31v16.92h8.5v3.32h-8.5v22.89c2.88-1.22,5.83-2.45,8.86-3.74Zm22.68-6.27c3.38,12,10.15,21.24,20.52,25.42a11.8,11.8,0,0,0-2.37,3c-10.73-4.82-17.65-14.61-21.25-27.72-1.87,10.59-7.2,20.31-21.81,27.72a11.91,11.91,0,0,0-2.38-2.59c14-7,19.08-16.06,20.81-25.85h-16v-3.31h16.49a73.47,73.47,0,0,0,.44-8.93v-8.79H254.29v-3.24h14.48V115.27h3.38v11.88h16.13v21h5.33v3.31Zm-2.16-12.24c0,3-.07,6-.36,8.93H285V130.39H272.15Z"/><path class="cls-6" d="M307.43,126.65a45.37,45.37,0,0,1-4.9,8.93,18.76,18.76,0,0,0-2-2.88c3.39-4.54,5.91-11.16,7.42-18l3.1.79a63.54,63.54,0,0,1-2.38,8h11.23v3.17Zm12.38,40a20.58,20.58,0,0,0,1.15,2.8c-10.51,6.84-12,8-13,9.15a11.84,11.84,0,0,0-2.08-2.59,8.19,8.19,0,0,0,3.45-6.34V153.65h-8.14v-3.17h8.14V139h-5.18v-3.17h14V139h-5.69v11.44h7.85v3.17h-7.85v17.72Zm10.73,1.58c1.44.65,2.81,1.94,5.11,3.46,3.6,2.16,7.78,2.88,13.68,2.88,4.76,0,12.39-.22,17.36-.8a13.81,13.81,0,0,0-1,3.75c-4,.21-12,.43-16.49.43-6.12,0-10.58-.86-14.47-3.38-2.45-1.73-4.32-3.53-5.84-3.53-2,0-5,3.53-8,7.63l-2.45-3c3.17-3.6,6.2-6.56,8.86-7.49V143.28h-5.83V140h9.07Zm-2.09-37.52A66.27,66.27,0,0,0,322,119.16l2.81-1.22a67.71,67.71,0,0,1,6.63,11.52Zm20.16,26.86H332.7v-3.24h15.91V142.92h-7.56c-2.88,0-4.82.44-5.4.94a12.15,12.15,0,0,0-1.15-3.24c1.08-.29,2.09-2.23,3.31-4.83a111.1,111.1,0,0,0,4.4-10.51H333V122h10.3a79.69,79.69,0,0,0,2.23-7.7l3.45.79L346.81,122H365v3.24H345.59a126.88,126.88,0,0,1-6.34,14.55h9.36v-9.22H352v9.22h11.74v3.09H352v11.45h13.32v3.24H352v13.61h-3.39Z"/><rect class="cls-5" x="531.93" y="224.07" width="297.64" height="48.02"/><path class="cls-6" d="M574.78,248a5.18,5.18,0,0,0,3.72-1.39,5,5,0,0,0,1.48-3.88V215.7h4.22v26.37a14.05,14.05,0,0,1-.44,3.44,7.91,7.91,0,0,1-1.55,3.09,8.07,8.07,0,0,1-3,2.24,11.17,11.17,0,0,1-4.69.86H558V227.3a3.82,3.82,0,0,1-.84.12q-.63.06-1,.06a6.35,6.35,0,0,1-2.41-.46,5.86,5.86,0,0,1-1.91-1.27,5.7,5.7,0,0,1-1.27-1.91,6.54,6.54,0,0,1,0-4.82,5.89,5.89,0,0,1,1.27-1.93,5.75,5.75,0,0,1,1.91-1.29,6.68,6.68,0,0,1,4.82,0,6,6,0,0,1,3.22,3.22,6.34,6.34,0,0,1,.45,2.41V248Zm-21.31-26.65a2.75,2.75,0,0,0,3.8,2.54,2.89,2.89,0,0,0,.86-.58,2.65,2.65,0,0,0,.58-.88,2.81,2.81,0,0,0,.21-1.08,2.7,2.7,0,0,0-2.7-2.7,2.81,2.81,0,0,0-1.08.21,2.65,2.65,0,0,0-.88.58,2.72,2.72,0,0,0-.58.86A2.66,2.66,0,0,0,553.47,221.39Z"/><path class="cls-6" d="M623.36,251.7h-4.25v-8.9a12.07,12.07,0,0,0-.6-3.79,8.45,8.45,0,0,0-2-3.31,11.6,11.6,0,0,0-3.75-2.44,12.75,12.75,0,0,0-5.06-1q-9.52,0-9.53,7.42v.6l.81-.11c.42,0,.77-.07,1.05-.07a6.35,6.35,0,0,1,2.41.46,5.88,5.88,0,0,1,1.92,1.26,5.72,5.72,0,0,1,1.26,1.92,6.54,6.54,0,0,1,0,4.82,5.87,5.87,0,0,1-1.26,1.93,5.62,5.62,0,0,1-1.92,1.28,6.52,6.52,0,0,1-4.81,0,5.81,5.81,0,0,1-3.22-3.21,6.35,6.35,0,0,1-.46-2.41v-6.75a11,11,0,0,1,.88-4.43,9.55,9.55,0,0,1,2.53-3.43,11.55,11.55,0,0,1,4.08-2.2,18.36,18.36,0,0,1,5.52-.77,14.74,14.74,0,0,1,7.54,1.74,12.08,12.08,0,0,1,4.52,4.45h.14V229a12.13,12.13,0,0,0-.63-3.88,7.93,7.93,0,0,0-2.08-3.25,11.24,11.24,0,0,0-3.55-2.25,13.36,13.36,0,0,0-5.17-.88,16.73,16.73,0,0,0-3.46.38,21.48,21.48,0,0,0-3.53,1.11A20.34,20.34,0,0,0,597.3,222a20.88,20.88,0,0,0-3.08,2.42v-4.92a17.37,17.37,0,0,1,6.13-3.3,24.45,24.45,0,0,1,7.33-1.09,19.77,19.77,0,0,1,6.84,1.07,13.58,13.58,0,0,1,4.91,3,12.22,12.22,0,0,1,3,4.55,16.28,16.28,0,0,1,1,5.76Zm-20.67-5.49a2.77,2.77,0,0,0-2.74-2.74,2.59,2.59,0,0,0-1.05.21,2.88,2.88,0,0,0-.87.58,2.77,2.77,0,0,0-.79,2,2.65,2.65,0,0,0,.79,1.92,2.61,2.61,0,0,0,1.92.79,2.8,2.8,0,0,0,1.07-.21,2.67,2.67,0,0,0,1.46-1.44A2.67,2.67,0,0,0,602.69,246.21Z"/><path class="cls-6" d="M619.29,209.76a3,3,0,0,1-2.2-1,3.1,3.1,0,0,1-.86-2.2,3.24,3.24,0,0,1,.82-2.18,3.12,3.12,0,0,1,2.48-.95,3.26,3.26,0,0,1,2.57,1,3.82,3.82,0,0,1,.91,2.62,6.18,6.18,0,0,1-.42,2.27,5.47,5.47,0,0,1-1.23,1.88,6.08,6.08,0,0,1-2,1.3,6.87,6.87,0,0,1-2.69.49,5.17,5.17,0,0,1-2.74-.7,12.82,12.82,0,0,1-2.09-1.57q-.93-.85-1.74-1.56a2.54,2.54,0,0,0-1.69-.7,2.26,2.26,0,0,0-1.28.35,4.2,4.2,0,0,0-1,1,9.66,9.66,0,0,0-.91,1.44l-1,1.77a19.21,19.21,0,0,1-2.5-1.35,11.83,11.83,0,0,1-2-1.69,7.27,7.27,0,0,1-1.41-2.06,5.77,5.77,0,0,1-.51-2.42,6.21,6.21,0,0,1,.7-3.1,5.67,5.67,0,0,1,1.88-2,7.82,7.82,0,0,1,2.75-1.07,16.59,16.59,0,0,1,3.28-.32h8.37a11,11,0,0,0,5.29-1.18,16.16,16.16,0,0,0,3.53-2.44v3.27A9.09,9.09,0,0,1,620.3,201a10.38,10.38,0,0,1-4.07.81H605.5a7.53,7.53,0,0,0-1.89.23,4.47,4.47,0,0,0-1.53.69,3.32,3.32,0,0,0-1,1.16,3.35,3.35,0,0,0-.39,1.65,3.24,3.24,0,0,0,.69,2,4.83,4.83,0,0,0,1.91,1.48,10.41,10.41,0,0,1,2.39-2.53,5.25,5.25,0,0,1,3.2-1,5.08,5.08,0,0,1,2.73.74,16.16,16.16,0,0,1,2.25,1.63c.69.6,1.35,1.14,2,1.64a3.19,3.19,0,0,0,2,.73,2.22,2.22,0,0,0,.92-.15A4.6,4.6,0,0,0,619.29,209.76Zm-1.2-3.24a1.6,1.6,0,0,0,.39,1.13,1.27,1.27,0,0,0,1,.42,1.29,1.29,0,0,0,1-.42,1.56,1.56,0,0,0,0-2,1.29,1.29,0,0,0-1-.42,1.27,1.27,0,0,0-1,.42A1.31,1.31,0,0,0,618.09,206.52Z"/><path class="cls-6" d="M637.64,241.82a5.68,5.68,0,0,0,2.56,5,12.77,12.77,0,0,0,7.21,1.74q4.92,0,7.33-2a6.38,6.38,0,0,0,2.41-5.14V229.52a11.7,11.7,0,0,0-.85-4.89,9.39,9.39,0,0,0-2.16-3,10.83,10.83,0,0,0-3.5-2.06,13.57,13.57,0,0,0-4.92-.84,16.73,16.73,0,0,0-3.46.38,21.48,21.48,0,0,0-3.53,1.11,20,20,0,0,0-3.4,1.78,20.8,20.8,0,0,0-3.07,2.42v-4.92a17.37,17.37,0,0,1,6.13-3.3,24.4,24.4,0,0,1,7.33-1.09,19.81,19.81,0,0,1,6.84,1.07,13.45,13.45,0,0,1,4.9,3,12.12,12.12,0,0,1,3,4.55,16.5,16.5,0,0,1,1,5.76v11.89a11.18,11.18,0,0,1-.82,4.34,9,9,0,0,1-2.55,3.44,12.08,12.08,0,0,1-4.36,2.27,21.47,21.47,0,0,1-6.26.81,22.05,22.05,0,0,1-6.38-.81,11.66,11.66,0,0,1-4.34-2.27,8.72,8.72,0,0,1-2.48-3.48,11.89,11.89,0,0,1-.79-4.41v-6a6.16,6.16,0,0,1,.46-2.41,5.81,5.81,0,0,1,1.28-1.94,5.92,5.92,0,0,1,1.93-1.28,6.54,6.54,0,0,1,4.82,0,5.63,5.63,0,0,1,1.91,1.28,5.94,5.94,0,0,1,1.27,1.94,6.52,6.52,0,0,1,0,4.81,5.79,5.79,0,0,1-3.18,3.19,6.34,6.34,0,0,1-2.41.45,9.75,9.75,0,0,1-1-.07c-.44,0-.73-.08-.84-.1Zm4.57-6.61a2.63,2.63,0,0,0-.21-1.05,2.88,2.88,0,0,0-.58-.87,2.77,2.77,0,0,0-2-.79,2.7,2.7,0,0,0-2.7,2.71,2.76,2.76,0,0,0,.21,1.07,2.67,2.67,0,0,0,1.44,1.46,2.73,2.73,0,0,0,3-.6A2.63,2.63,0,0,0,642.21,235.21Z"/><path class="cls-6" d="M671.46,251.7V237.46a6.84,6.84,0,0,1,1.77-4.92,11.07,11.07,0,0,1,4.34-2.78h-7.06V227a15.13,15.13,0,0,1,1.74-4.66,13.45,13.45,0,0,1,3.25-3.78,15,15,0,0,1,4.78-2.53,20.19,20.19,0,0,1,6.33-.91,22.42,22.42,0,0,1,7.42,1.07,13.13,13.13,0,0,1,5,3,11.15,11.15,0,0,1,2.81,4.53,18.19,18.19,0,0,1,.88,5.8V251.7h-4.22V229.8q0-5.91-2.92-8.53c-1.94-1.74-4.92-2.62-8.93-2.62a17.4,17.4,0,0,0-5.13.62,11.93,11.93,0,0,0-3.32,1.61,8.82,8.82,0,0,0-2.25,2.32,11.33,11.33,0,0,0-1.39,3.61h8.68v3.09a10.36,10.36,0,0,0-5.66,2.73,7.2,7.2,0,0,0-1.89,5.18V251.7Z"/><path class="cls-6" d="M717.44,215.7v24.36c.12,0,.41-.06.86-.1a10,10,0,0,1,1-.07,6.34,6.34,0,0,1,2.41.45,5.9,5.9,0,0,1,1.92,1.27,5.78,5.78,0,0,1,1.26,1.91,6.54,6.54,0,0,1,0,4.82,5.87,5.87,0,0,1-1.26,1.93,5.65,5.65,0,0,1-1.92,1.29,6.52,6.52,0,0,1-4.81,0,5.83,5.83,0,0,1-1.94-1.29,5.76,5.76,0,0,1-1.28-1.93,6.35,6.35,0,0,1-.46-2.41V215.7ZM722,246a2.75,2.75,0,0,0-3.8-2.53,2.78,2.78,0,0,0-.86.58,2.7,2.7,0,0,0-.58.88,2.76,2.76,0,0,0-.21,1.07,2.71,2.71,0,0,0,2.71,2.71,2.81,2.81,0,0,0,1.07-.22,2.65,2.65,0,0,0,.88-.58,2.56,2.56,0,0,0,.58-.86A2.66,2.66,0,0,0,722,246Z"/><path class="cls-6" d="M740.93,215.07a16.91,16.91,0,0,1,5.08.7,10.35,10.35,0,0,1,3.7,2,9.24,9.24,0,0,1,2.34,3,14.27,14.27,0,0,1,1.22,4.45,10.73,10.73,0,0,0-5.21,4,13,13,0,0,0-2.07,7.78V248h9.84a5.23,5.23,0,0,0,3.73-1.39,5.08,5.08,0,0,0,1.48-3.88V228.21a9.53,9.53,0,0,0-.3-2.46,8.2,8.2,0,0,0-.81-2,6,6,0,0,0-1.2-1.49,4.58,4.58,0,0,0-1.42-.9v-2.15a9.24,9.24,0,0,0,4.46-2.4,8.83,8.83,0,0,0,2.22-4.06h4.43a7.74,7.74,0,0,1-1.13,2.69,10.24,10.24,0,0,1-1.91,2.14A14.35,14.35,0,0,1,763,219.2a16.48,16.48,0,0,1-2.59,1.1,5.77,5.77,0,0,1,1.8.88,6.63,6.63,0,0,1,1.56,1.64,8.35,8.35,0,0,1,1.09,2.35,10.66,10.66,0,0,1,.4,3v13.86a13.58,13.58,0,0,1-.44,3.44,7.89,7.89,0,0,1-1.54,3.09,8.2,8.2,0,0,1-3,2.24,11.17,11.17,0,0,1-4.69.86H741.77V236.86a15.18,15.18,0,0,1,1.83-7.94,10.6,10.6,0,0,1,5.45-4.43,5.62,5.62,0,0,0-1.08-3.15,6.81,6.81,0,0,0-1.77-1.77,8.49,8.49,0,0,0-1.85-.83,13.42,13.42,0,0,0-3.6-.33,10.22,10.22,0,0,0-4.57,1,5.93,5.93,0,0,0-2.92,2.88,2.84,2.84,0,0,1,.65-.14,5,5,0,0,1,.76-.07,6.34,6.34,0,0,1,2.41.45,6,6,0,0,1,1.91,1.27,5.9,5.9,0,0,1,1.27,1.92,6.65,6.65,0,0,1,0,4.81,6.1,6.1,0,0,1-1.27,1.94,5.83,5.83,0,0,1-1.91,1.28,6.35,6.35,0,0,1-2.41.46,6.43,6.43,0,0,1-2.85-.6,5.66,5.66,0,0,1-2-1.64,7,7,0,0,1-1.21-2.47,11.61,11.61,0,0,1-.41-3.13,12.76,12.76,0,0,1,.65-3.91,10.09,10.09,0,0,1,2.15-3.65,11.21,11.21,0,0,1,3.94-2.71A15.29,15.29,0,0,1,740.93,215.07Zm-3.55,13.11a2.77,2.77,0,0,0-2.75-2.74,2.66,2.66,0,0,0-1,.21,2.67,2.67,0,0,0-1.44,1.46,2.76,2.76,0,0,0-.21,1.07,2.7,2.7,0,0,0,2.7,2.71,2.81,2.81,0,0,0,1.08-.21,2.94,2.94,0,0,0,.87-.58,2.71,2.71,0,0,0,.58-.87A2.63,2.63,0,0,0,737.38,228.18Z"/><path class="cls-6" d="M783.78,246.07a18.44,18.44,0,0,1,3-2.6,25.33,25.33,0,0,1,3.54-2.07A21.85,21.85,0,0,1,794,240a27.79,27.79,0,0,1,4.5-.81V215.7h4.22V239a13,13,0,0,1,2.95.71,9.42,9.42,0,0,1,2.78,1.51,6.72,6.72,0,0,1,1.81,2.14,6.25,6.25,0,0,1,.61,2.88,5.54,5.54,0,0,1-6.15,6,8.61,8.61,0,0,1-2.73-.47,5.05,5.05,0,0,1-2.16-1.34,4.67,4.67,0,0,1-1-2.11,12.73,12.73,0,0,1-.28-2.83v-3.09a15.87,15.87,0,0,0-4.59,1.19,28.37,28.37,0,0,0-3.89,2.15,26.58,26.58,0,0,0-3.58,2.79,15,15,0,0,0-2.64,3.15h-4.22V227.3a4.28,4.28,0,0,1-.84.12q-.6.06-1,.06a6.35,6.35,0,0,1-2.41-.46,5.81,5.81,0,0,1-3.18-3.18,6.54,6.54,0,0,1,0-4.82,5.89,5.89,0,0,1,1.27-1.93,5.65,5.65,0,0,1,1.91-1.29,6.68,6.68,0,0,1,4.82,0,5.94,5.94,0,0,1,1.93,1.29,5.76,5.76,0,0,1,1.28,1.93,6.16,6.16,0,0,1,.46,2.41ZM775,221.39a2.75,2.75,0,0,0,3.8,2.54,3,3,0,0,0,.86-.58,2.65,2.65,0,0,0,.58-.88,2.81,2.81,0,0,0,.21-1.08,2.7,2.7,0,0,0-2.71-2.7,2.8,2.8,0,0,0-1.07.21,2.65,2.65,0,0,0-.88.58,2.72,2.72,0,0,0-.58.86A2.66,2.66,0,0,0,775,221.39Zm27.71,25.28a2.45,2.45,0,0,0,.59,1.88,2,2,0,0,0,1.41.55,1.94,1.94,0,0,0,1.37-.57,3.09,3.09,0,0,0,.6-2.25,3.9,3.9,0,0,0-.28-1.45,3.72,3.72,0,0,0-.81-1.22,4.76,4.76,0,0,0-1.25-.88,5.15,5.15,0,0,0-1.63-.45Z"/><rect class="cls-5" x="733.79" y="91.57" width="262.63" height="43.01"/><path class="cls-6" d="M806.25,88.56v2.63H758.07V88.56Zm-38.88,26h34.26v2.64H764.25V105.59h32.52V99.65H764.13V97.13h35.76v10.92H767.37ZM799.89,83.1H764.61V65.64h3.18v5.94h28.92V65.64h3.18Zm-3.18-8.94H767.79v6.3h28.92Z"/><path class="cls-6" d="M861.63,94.49v2.7H813.21v-2.7h22.62V87.77h-16.2v-12h32.46V68.88H819.51V66.3h35.7V78.24H822.75v6.9h33.66v2.63H839v6.72Zm-43,7.44h36.84v15.36h-3.18V104.63H818.67Z"/><path class="cls-6" d="M883.41,81.24c0,8.76,5.16,17.93,12.12,21.71l-2,2.52c-5.34-3.18-9.72-9.36-11.64-16.43-1.8,7.49-6.06,14.09-11.52,17.51l-2-2.4c7-4.14,12-13.86,12-22.91V77.76H869.49v-2.7h10.86v-8.4h3.12v8.4h10.74v2.7h-10.8Zm16.26-15.12h3.06v48.95h-3.06V89h-9.42V86.27h9.42Zm13.8-1.44V118h-3.12V64.68Z"/><path class="cls-6" d="M938.73,94.43c-7.8,0-13.5-5.34-13.5-13s5.7-12.84,13.5-12.84,13.5,5.28,13.5,12.84S946.53,94.43,938.73,94.43Zm0-2.82a10.08,10.08,0,0,0,10.44-10.13c0-5.7-4.5-10-10.44-10s-10.44,4.32-10.44,10A10.08,10.08,0,0,0,938.73,91.61ZM968.85,114v2.7H933.57V100h3.18v14Zm-1.8-9.9h-3.18V64.8h3.18Z"/><rect class="cls-5" x="613.59" y="516.34" width="518.66" height="68.27"/><path class="cls-6" d="M649.24,484h18.24c13.92,0,22.75,5.38,22.75,16.9,0,7.39-3.84,13-11,15.17v.48c9.22,1.44,15.36,7.2,15.36,16.89,0,13.25-10,20.26-25.82,20.26H649.24Zm16.13,30.91c15.17,0,21.12-5.18,21.12-13.82,0-10.27-7-14-20.45-14H652.79v27.83Zm2.11,35.62c14.5,0,23.52-5.19,23.52-16.9,0-10.56-8.64-15.55-23.52-15.55H652.79V550.5Z"/><path class="cls-6" d="M709.43,548V477.45h3.46v71.13c0,2.11.77,3.17,2.11,3.17a8.29,8.29,0,0,0,1.83-.2l.67,3a10.54,10.54,0,0,1-2.88.38C711.35,554.91,709.43,552.9,709.43,548Z"/><path class="cls-6" d="M729.4,528.51c0-17,10.37-26.68,22.47-26.68s22.46,9.69,22.46,26.68c0,16.71-10.37,26.4-22.46,26.4S729.4,545.22,729.4,528.51Zm41.38,0c0-13.91-8.16-23.51-18.91-23.51s-18.82,9.6-18.82,23.51,8.06,23.24,18.82,23.24S770.78,542.34,770.78,528.51Z"/><path class="cls-6" d="M785.66,528.51c0-17,10.56-26.68,22.75-26.68,6.91,0,11.42,3.17,14.78,6.33l-2.21,2.5c-3.36-3.17-7.39-5.66-12.57-5.66-10.66,0-19.1,9.6-19.1,23.51s7.58,23.24,19.1,23.24a20.7,20.7,0,0,0,14-6l2,2.49c-4.22,3.75-9.6,6.72-16.13,6.72C795.45,554.91,785.66,545.22,785.66,528.51Z"/><path class="cls-6" d="M837.3,477.45h3.46V535H841l26-32h4l-16.32,20,19.2,30.63h-3.75l-17.47-28-11.9,14.11v13.92H837.3Z"/><path class="cls-6" d="M879.74,528.51c0-17,10.56-26.68,22.75-26.68,6.91,0,11.42,3.17,14.78,6.33l-2.21,2.5c-3.36-3.17-7.39-5.66-12.57-5.66-10.66,0-19.1,9.6-19.1,23.51s7.58,23.24,19.1,23.24a20.7,20.7,0,0,0,14-6l2,2.49c-4.22,3.75-9.6,6.72-16.13,6.72C889.53,554.91,879.74,545.22,879.74,528.51Z"/><path class="cls-6" d="M931.38,477.45h3.46v33.88c5.38-5.47,10.66-9.5,17.66-9.5,10.37,0,15.27,6.24,15.27,19.29v32.55h-3.46V521.6c0-11.13-3.55-16.6-12.19-16.6-6.24,0-10.85,3.36-17.28,10v38.69h-3.46Z"/><path class="cls-6" d="M982.84,541.19c0-11.24,10.27-16.51,33-19.11.29-8.16-1.82-17.08-12.28-17.08-7.2,0-13.25,3.55-16.52,6.14l-1.72-2.78c3.16-2.31,10.17-6.53,18.43-6.53,11.9,0,15.55,8.83,15.55,19.1v32.74h-2.88L1016,547h-.29c-5.18,4.22-11.52,8-18.24,8C989.56,554.91,982.84,550.79,982.84,541.19Zm33,2V525.06c-22,2.4-29.47,7.49-29.47,16,0,7.78,5.19,10.66,11.33,10.66S1009.24,548.87,1015.86,543.2Z"/><path class="cls-6" d="M1036.22,486.66a3.5,3.5,0,0,1,3.64-3.74,3.63,3.63,0,0,1,3.75,3.74,3.67,3.67,0,0,1-3.75,3.65A3.53,3.53,0,0,1,1036.22,486.66Zm1.82,16.42h3.46v50.59H1038Z"/><path class="cls-6" d="M1061.56,503.08h2.88l.58,8.06h.19c5.18-5.28,10.46-9.31,17.47-9.31,10.36,0,15.26,6.24,15.26,19.29v32.55h-3.45V521.6c0-11.13-3.56-16.6-12.2-16.6-6.24,0-10.84,3.36-17.27,10v38.69h-3.46Z"/><rect class="cls-5" x="864.18" y="346.04" width="308.92" height="41.28"/><path class="cls-6" d="M886.4,325.41h25.74v3.06H890v16h9.42c9.36,0,15.66,3.42,15.66,11.76,0,8.64-5.58,13-15.42,13H886.4Zm12.42,40.74c8.46,0,12.72-3,12.72-9.84,0-6.3-4.44-9-13-9H890v18.84Z"/><path class="cls-6" d="M918.74,369.51l.78-3.3a4.73,4.73,0,0,0,1.38.24c2.52,0,4.08-2.4,4.68-7.74.84-7.2,1.74-14.34,2.58-21.54h17.76v32h-3.48v-29H930.92c-.72,6.48-1.5,12.9-2.28,19.38-.84,7.08-3.36,10.44-7.38,10.44A6.33,6.33,0,0,1,918.74,369.51Z"/><path class="cls-6" d="M955.28,353.19c0-10.68,6.72-16.86,14.46-16.86s14.46,6.18,14.46,16.86-6.72,16.74-14.46,16.74S955.28,363.81,955.28,353.19Zm25.32,0c0-8.16-4.62-13.8-10.86-13.8s-10.8,5.64-10.8,13.8,4.56,13.74,10.8,13.74S980.6,361.35,980.6,353.19Z"/><path class="cls-6" d="M1018.16,369.15h-3.84l-9.6-15.24H997v15.24h-3.48v-32H997V351h7.56l3.3-7.74c2.4-5.64,4.62-6.9,7.56-6.9a5.57,5.57,0,0,1,1.62.3l-.72,3.36a2.81,2.81,0,0,0-1-.12c-1.68,0-3.06.66-4.86,4.92l-3.18,7.56Z"/><path class="cls-6" d="M1041.8,355.53a28.32,28.32,0,0,1-6.66.72c-8.22,0-12.54-3.06-12.54-10.56v-8.52h3.48v8.52c0,5.46,3.06,7.56,9.72,7.56a23.1,23.1,0,0,0,6-.72V337.17h3.48v32h-3.48Z"/><path class="cls-6" d="M1054.58,353.19c0-10.38,6.78-16.86,14-16.86,7.74,0,12.36,5.52,12.36,14.88a16.6,16.6,0,0,1-.18,2.52h-22.68c.18,7.8,4.8,13.26,11.7,13.26a14.32,14.32,0,0,0,8.52-2.76l1.32,2.58a17.89,17.89,0,0,1-10.2,3.12C1061.24,369.93,1054.58,363.69,1054.58,353.19ZM1077.8,351c0-7.74-3.54-11.64-9.12-11.64-5.22,0-9.9,4.32-10.56,11.64Z"/><path class="cls-6" d="M1089.5,337.17h3.42v15.42c0,3.42-.24,7.74-.42,12h.3c1.26-2,3.24-5,4.5-7l13.86-20.46h3.3v32H1111V353.79c0-3.54.24-7.8.42-12.06h-.3c-1.26,2-3.24,5-4.5,6.9l-13.86,20.52h-3.3Zm2.64-16h3.12c.12,3.84,1.74,7.5,6.84,7.5s6.72-3.66,6.84-7.5h3.12c-.3,4.5-2.58,9.84-10,9.84S1092.5,325.71,1092.14,321.21Z"/><path class="cls-6" d="M1126.46,337.17h3.48v13.62h17.82V337.17h3.48v32h-3.48V354h-17.82v15.18h-3.48Z"/><rect class="cls-5" x="26.9" y="343.48" width="447.45" height="38.65"/><path class="cls-6" d="M44.87,345.42c0-11.19,6.19-18.1,15.07-18.1a12.1,12.1,0,0,1,9.22,4.22l-1.63,1.88a9.82,9.82,0,0,0-7.59-3.51c-7.39,0-12,5.95-12,15.41S52.46,361,59.8,361c3.55,0,6.19-1.49,8.69-4.22l1.63,1.82a13.11,13.11,0,0,1-10.46,5C51,363.56,44.87,356.6,44.87,345.42Z"/><path class="cls-6" d="M75.11,356.51c0-5.67,5-8.36,16.32-9.65.1-3.8-1-7.73-5.85-7.73a13.82,13.82,0,0,0-8.07,2.93l-1.25-2a17.78,17.78,0,0,1,9.7-3.36c6.1,0,8.26,4.37,8.26,10v16.23H91.87l-.29-3.27h-.1c-2.59,2.12-5.66,3.89-8.93,3.89C78.42,363.56,75.11,361.26,75.11,356.51Zm16.32.72v-8.31c-10.08,1.15-13.53,3.51-13.53,7.44,0,3.51,2.4,4.85,5.23,4.85S88.41,359.87,91.43,357.23Z"/><path class="cls-6" d="M101,350.17c0-8.26,5.28-13.49,11.33-13.49,3.07,0,5.14,1.15,7.63,3.12l-.19-4.61V324.77h2.79v38.17h-2.31l-.33-3.22h-.1a11.83,11.83,0,0,1-8.21,3.84C105.21,363.56,101,358.76,101,350.17Zm18.77,6.91V342.3c-2.59-2.31-4.75-3.17-7.15-3.17-4.9,0-8.64,4.75-8.64,11,0,6.62,2.93,10.94,8.11,10.94C114.86,361.11,117.26,359.72,119.8,357.08Z"/><path class="cls-6" d="M130.07,350.17c0-8.31,5.43-13.49,11.23-13.49,6.2,0,9.89,4.42,9.89,11.9a12.82,12.82,0,0,1-.14,2H132.9c.15,6.24,3.84,10.61,9.36,10.61a11.42,11.42,0,0,0,6.82-2.21l1.06,2.07a14.39,14.39,0,0,1-8.16,2.49C135.4,363.56,130.07,358.57,130.07,350.17Zm18.58-1.78c0-6.19-2.83-9.31-7.3-9.31-4.17,0-7.92,3.46-8.45,9.31Z"/><path class="cls-6" d="M158,337.35h2.3l.34,3.89h.09c2.6-2.54,5.24-4.56,8.74-4.56,5.33,0,7.78,3.31,7.78,9.89v16.37h-2.79V347c0-5.33-1.68-7.77-5.61-7.77-3,0-5.09,1.53-8.07,4.6v19.16H158Z"/><path class="cls-6" d="M184.69,356.51c0-5.67,5-8.36,16.33-9.65.09-3.8-1-7.73-5.86-7.73a13.82,13.82,0,0,0-8.07,2.93l-1.24-2a17.75,17.75,0,0,1,9.69-3.36c6.1,0,8.26,4.37,8.26,10v16.23h-2.35l-.29-3.27h-.1c-2.59,2.12-5.66,3.89-8.92,3.89C188,363.56,184.69,361.26,184.69,356.51Zm16.33.72v-8.31c-10.08,1.15-13.54,3.51-13.54,7.44,0,3.51,2.4,4.85,5.23,4.85S198,359.87,201,357.23Z"/><path class="cls-6" d="M221.27,350.17c0-8.26,5.28-13.49,11.33-13.49,3.07,0,5.14,1.15,7.63,3.12l-.19-4.61V324.77h2.78v38.17h-2.3l-.34-3.22h-.09a11.85,11.85,0,0,1-8.21,3.84C225.45,363.56,221.27,358.76,221.27,350.17ZM240,357.08V342.3c-2.59-2.31-4.75-3.17-7.15-3.17-4.9,0-8.64,4.75-8.64,11,0,6.62,2.92,10.94,8.11,10.94C235.1,361.11,237.5,359.72,240,357.08Z"/><path class="cls-6" d="M250.31,350.17c0-8.31,5.42-13.49,11.23-13.49,6.2,0,9.89,4.42,9.89,11.9a14.13,14.13,0,0,1-.14,2H253.14c.15,6.24,3.84,10.61,9.36,10.61a11.42,11.42,0,0,0,6.82-2.21l1.06,2.07a14.4,14.4,0,0,1-8.17,2.49C255.64,363.56,250.31,358.57,250.31,350.17Zm18.58-1.78c0-6.19-2.83-9.31-7.3-9.31-4.18,0-7.92,3.46-8.45,9.31Z"/><path class="cls-6" d="M291.59,360.35h-.1l-.33,2.59H288.9V324.77h2.79v11l-.15,4.9c2.55-2.16,5.57-3.94,8.64-3.94,6.82,0,10.28,5.18,10.28,13.06,0,8.73-5.29,13.82-11.29,13.82A12.67,12.67,0,0,1,291.59,360.35Zm15.89-10.61c0-6.15-2.11-10.61-7.83-10.61-2.44,0-5.08,1.44-8,4.08V358a11.49,11.49,0,0,0,7.24,3.12C303.93,361.11,307.48,356.6,307.48,349.74Z"/><path class="cls-6" d="M317.84,359.15V324.77h2.79v34.66c0,1.2.48,1.73,1.15,1.73a4.52,4.52,0,0,0,.91-.09l.44,2.2a5.5,5.5,0,0,1-1.88.29C319,363.56,317.84,362.12,317.84,359.15Z"/><path class="cls-6" d="M328.55,350.17c0-8.55,5.38-13.49,11.57-13.49s11.57,4.94,11.57,13.49-5.38,13.39-11.57,13.39S328.55,358.67,328.55,350.17Zm20.26,0c0-6.53-3.7-11-8.69-11s-8.64,4.51-8.64,11,3.65,11,8.64,11S348.81,356.7,348.81,350.17Z"/><path class="cls-6" d="M375.83,364.62l.19-5c-2.25,2.2-5,3.93-8.35,3.93-6.43,0-10.61-4.8-10.61-13.39,0-8.26,5.28-13.49,11.33-13.49,3.07,0,5.18,1.15,7.54,3.07H376l.34-2.4h2.25v37h-2.78Zm0-7.54V342.3c-2.59-2.31-4.75-3.17-7.15-3.17-4.9,0-8.64,4.75-8.64,11,0,6.62,2.92,10.94,8.11,10.94C370.89,361.11,373.29,359.72,375.83,357.08Z"/><path class="cls-6" d="M387.83,353.72V337.35h2.78v16c0,5.23,1.63,7.68,5.57,7.68,3,0,5.09-1.54,8-5V337.35h2.78v25.59h-2.35l-.24-4.23h-.14c-2.5,2.88-5.09,4.85-8.64,4.85C390.23,363.56,387.83,360.3,387.83,353.72Z"/><path class="cls-6" d="M414.42,350.17c0-8.31,5.42-13.49,11.23-13.49,6.2,0,9.89,4.42,9.89,11.9a14.13,14.13,0,0,1-.14,2H417.25c.15,6.24,3.84,10.61,9.36,10.61a11.42,11.42,0,0,0,6.82-2.21l1.06,2.07a14.4,14.4,0,0,1-8.17,2.49C419.75,363.56,414.42,358.57,414.42,350.17ZM433,348.39c0-6.19-2.83-9.31-7.3-9.31-4.18,0-7.92,3.46-8.45,9.31Z"/><path class="cls-6" d="M439.24,360.06l1.48-2a11.74,11.74,0,0,0,8.07,3.22c3.89,0,5.85-2.21,5.85-4.85,0-3-3.21-4.42-6.19-5.47-3.79-1.35-8-2.93-8-7.35,0-3.74,3-6.91,8.4-6.91a12.35,12.35,0,0,1,7.44,2.74l-1.44,1.92a9.8,9.8,0,0,0-6.1-2.31c-3.79,0-5.52,2.11-5.52,4.42,0,2.83,3,3.89,5.95,5,3.94,1.49,8.26,2.88,8.26,7.83,0,3.93-3.12,7.29-8.79,7.29A15,15,0,0,1,439.24,360.06Z"/><rect class="cls-5" x="304.13" y="695.01" width="456.46" height="43.98"/><path class="cls-6" d="M366.15,680.49a8,8,0,0,0-.66,2.28c-1.26,6.6-4.32,16.44-8.88,22.31-5.52,7-12.18,12.24-23.34,15.72l-2.64-2.88c11.46-3,18.18-8,23.34-14.7,4.38-5.69,7.5-14.93,8.34-21.05H330c-2.16,0-3.72.06-5.28.18v-3.48a45.83,45.83,0,0,0,5.34.36h31.44a8,8,0,0,0,2.34-.24Zm-5-10.56c1.38,2,3.66,5.64,4.92,7.92L363.75,679a62.14,62.14,0,0,0-4.86-8Zm7.38-1.5c1.38,1.92,3.66,5.52,5,7.92l-2.34,1a63.66,63.66,0,0,0-5-7.92Z"/><path class="cls-6" d="M422,712.82c0,1.68.06,5.7.12,6.6h-3.36c.06-.6.06-2,.12-3.54h-35c.06,1.38.06,2.88.12,3.54h-3.3c.06-1,.12-4.92.12-6.54V683.13c0-1.14,0-2.64-.06-4,2.28.12,3.48.12,4.8.12h31.68c1.2,0,3.3,0,4.92-.12-.12,1.32-.12,2.7-.12,4Zm-38.16-30.53v30.65h35V682.29Z"/><path class="cls-6" d="M443.73,701.91,440.85,703a127.17,127.17,0,0,0-5.34-13.37l2.82-1.14C439.35,690.69,442.59,698.84,443.73,701.91Zm30.06-13.62c-.3.78-.54,1.56-.72,2.1a43.35,43.35,0,0,1-27.9,32.87l-2.58-2.64a40.75,40.75,0,0,0,19.32-12.84,42.81,42.81,0,0,0,8.58-20.51Zm-16.92,10-2.82,1.08a106.77,106.77,0,0,0-4.62-12.89l2.88-1C453.27,687.87,456.21,695.79,456.87,698.3Z"/><path class="cls-6" d="M527.43,681.75a15.35,15.35,0,0,0-1,2.58,57.94,57.94,0,0,1-10.74,21c-5.28,6.48-12.48,11.94-23.7,16l-2.7-2.58a47.91,47.91,0,0,0,23.82-15.12,53,53,0,0,0,10.2-20.15H501a54.83,54.83,0,0,1-15.24,14.93l-2.7-2a48.47,48.47,0,0,0,19-20.82,18.41,18.41,0,0,0,1.38-3.9L507,673c-.72,1.2-1.5,2.82-2,3.84a43,43,0,0,1-2.16,3.84h18.78a7.06,7.06,0,0,0,3.12-.48Z"/><path class="cls-6" d="M579.63,693c1.32,0,3.18-.12,4.38-.24v3.29c-1.14-.12-2.88-.17-4.26-.17H562.17c-.36,12.05-4.86,19.49-15.3,25.37l-2.94-2.16c9.54-4.5,14.76-11.28,15.24-23.21h-18.6c-2,0-3.84.05-5.22.17v-3.35c1.15.11,3.3.3,5.11.3h18.77V680.61c-6.3.66-13.38.84-18.35.9l-.79-2.94a135.76,135.76,0,0,0,20-1c5-.66,12.72-2.16,15.6-3.36l2.1,2.76c-.9.24-1.8.48-2.58.72-3.06.72-8.34,1.86-13,2.52V693Z"/><path class="cls-6" d="M627.81,716a35.94,35.94,0,0,0,3.72-.18v3.3c-1.2-.06-2.82-.12-3.72-.12H594.64c-1.2,0-2.58.06-4,.12v-3.3c1.32.12,2.7.18,4,.18h14.81V692.37H597.33c-.71,0-2.52,0-3.77.12v-3.18c1.25.12,3,.18,3.77.18h27.72c1.5,0,2.88-.12,4-.18v3.18c-1.14-.12-2.64-.12-4-.12h-12.6V716Z"/><path class="cls-6" d="M641.8,694.53c1.56.12,4.08.23,7.62.23h33.23c3.12,0,4.92-.11,6.12-.23v3.72c-1.08-.07-3.3-.18-6.06-.18H649.42c-3.3,0-6,.06-7.62.18Z"/><path class="cls-6" d="M722.43,707.42c8.64-5.63,15.66-14.34,18.9-21.35l1.86,3.18a58,58,0,0,1-19,20.81,66,66,0,0,1-24.35,9.84l-2-3.12A60.72,60.72,0,0,0,722.43,707.42Zm-5.7-18.77L714.39,691a128.73,128.73,0,0,0-14.87-12.3l2.1-2.22A137.85,137.85,0,0,1,716.73,688.65Z"/><rect class="cls-5" x="71.01" y="530.01" width="315.77" height="46.27"/><path class="cls-6" d="M122.87,550.28l-1.09.41a11.37,11.37,0,0,1-1.54.43c-.59.12-1.27.23-2,.33a21.49,21.49,0,0,1-11-1.57,22.52,22.52,0,0,1-6.71-4.87,42.37,42.37,0,0,1-5.71-7.63q-2.67-4.47-5.48-10l3-1.64a8.76,8.76,0,0,0,2.14,2.94,3.69,3.69,0,0,0,2.37.84,3.87,3.87,0,0,0,3.33-1.73,8,8,0,0,0,1.21-4.66,16.48,16.48,0,0,0-.25-2.78,20.1,20.1,0,0,0-.76-3.06,24.55,24.55,0,0,0-1.29-3.17A23.21,23.21,0,0,0,97.26,511H85.6v-3.34h50.92V511h-6.15v40.34h-3.75V536.13l-.12,0a10.18,10.18,0,0,1-3.55,2.51,10.93,10.93,0,0,1-4.16.8A9.84,9.84,0,0,1,111,535.9a10.81,10.81,0,0,1-2-3.62,13.39,13.39,0,0,1-.66-4.15,12.37,12.37,0,0,1,.63-3.92,10.41,10.41,0,0,1,1.86-3.4,9.11,9.11,0,0,1,3.05-2.39,9.32,9.32,0,0,1,4.19-.89,10.37,10.37,0,0,1,2.42.27,10,10,0,0,1,2.14.81,13.53,13.53,0,0,1,2,1.26c.63.49,1.26,1,1.89,1.64l.12,0V511H101.24a27.6,27.6,0,0,1,2.93,6.4,20,20,0,0,1,.94,5.79,13.07,13.07,0,0,1-.58,4,9.87,9.87,0,0,1-1.69,3.2,8,8,0,0,1-2.66,2.12,7.8,7.8,0,0,1-3.51.78l0,.12a38,38,0,0,0,4.45,7,23.26,23.26,0,0,0,4.6,4.38,15,15,0,0,0,4.66,2.26,17.83,17.83,0,0,0,7.12.48c.76-.11,1.47-.24,2.13-.4a16.78,16.78,0,0,0,1.82-.51q.82-.27,1.47-.51Zm3.75-23.94c-.4-.52-.85-1.09-1.38-1.71a14,14,0,0,0-1.79-1.73,9.48,9.48,0,0,0-2.22-1.33,6.92,6.92,0,0,0-2.73-.53,6,6,0,0,0-2.8.63,6.39,6.39,0,0,0-2,1.66,7.14,7.14,0,0,0-1.26,2.34,8.85,8.85,0,0,0-.42,2.7,9.11,9.11,0,0,0,.42,2.74,7.55,7.55,0,0,0,1.26,2.38,6.34,6.34,0,0,0,2.07,1.7,6,6,0,0,0,2.81.65,8.8,8.8,0,0,0,2.58-.43,7.54,7.54,0,0,0,2.63-1.43,8.16,8.16,0,0,0,2.06-2.65,9.21,9.21,0,0,0,.82-4.08Z"/><path class="cls-6" d="M179.64,511h-6.15v40.34h-3.75V511h-8.09v18.87a15.49,15.49,0,0,1-.76,5.13,10,10,0,0,1-2.08,3.57,8.08,8.08,0,0,1-3.13,2.08,11.19,11.19,0,0,1-3.93.67,11.45,11.45,0,0,1-4.29-.77,9.09,9.09,0,0,1-3.35-2.3,10.59,10.59,0,0,1-2.19-3.77,15.93,15.93,0,0,1-.77-5.17V511h-6.68v-3.34h45.17ZM145,511v19.92a10.74,10.74,0,0,0,.34,2.67,6.38,6.38,0,0,0,1.09,2.27,5.27,5.27,0,0,0,2,1.58,6.86,6.86,0,0,0,3,.6,7,7,0,0,0,3.06-.6,5.49,5.49,0,0,0,2-1.58,6.24,6.24,0,0,0,1.1-2.27,10.73,10.73,0,0,0,.33-2.67V511Z"/><path class="cls-6" d="M180.58,565.84l-11.72-11,2.17-2.43,11.81,10.87Z"/><path class="cls-6" d="M221.68,511h-8.61v11.19H198.28a10.55,10.55,0,0,0-2.05.17,3.36,3.36,0,0,0-1.34.52,2,2,0,0,0-.72.94,4.34,4.34,0,0,0-.2,1.39,7.49,7.49,0,0,0,.18,1.57,4,4,0,0,0,.68,1.55,3.91,3.91,0,0,0,1.4,1.19,4.83,4.83,0,0,0,2.28.47h8.23a12.73,12.73,0,0,1,4.47.69,7.79,7.79,0,0,1,3,1.87,6.8,6.8,0,0,1,1.64,2.81,11.56,11.56,0,0,1,.5,3.47,14.1,14.1,0,0,1-.85,4.87,11.89,11.89,0,0,1-2.52,4.14,12.1,12.1,0,0,1-4.11,2.87,13.84,13.84,0,0,1-5.64,1.07,17.56,17.56,0,0,1-6.78-1.34,21.4,21.4,0,0,1-6-3.77,25.36,25.36,0,0,1-4.77-5.74,29.9,29.9,0,0,1-3.22-7.28l3.13-1.17a31.2,31.2,0,0,0,2.71,6,24.31,24.31,0,0,0,3.91,5.08,18.53,18.53,0,0,0,4.94,3.52,13.05,13.05,0,0,0,5.81,1.31,11,11,0,0,0,4-.68,9.07,9.07,0,0,0,3.09-1.94,8.6,8.6,0,0,0,2-3,10.42,10.42,0,0,0,.72-4,7.55,7.55,0,0,0-.38-2.58,3.66,3.66,0,0,0-1.16-1.64,4.74,4.74,0,0,0-2-.87,14.44,14.44,0,0,0-2.81-.25H199a8,8,0,0,1-6.53-3,8.58,8.58,0,0,1-1.56-2.88,10.46,10.46,0,0,1-.49-3.09,6.14,6.14,0,0,1,.57-2.81,4.47,4.47,0,0,1,1.58-1.78A6.62,6.62,0,0,1,195,519a15,15,0,0,1,3-.28h11.37V511H177.59v-3.34h44.09Z"/><path class="cls-6" d="M239.5,527.6l-1,.09-.88,0a11.59,11.59,0,0,1-4.41-.79,9.64,9.64,0,0,1-3.31-2.18,9.5,9.5,0,0,1-2.09-3.25,10.9,10.9,0,0,1-.74-4,10,10,0,0,1,.55-3.39,10.24,10.24,0,0,1,1.62-2.91l0-.15h-9.61v-3.34h47.43V511h-6.15v40.34h-3.75V511H244.92l0,.15a14.16,14.16,0,0,1,1.65,2,14.35,14.35,0,0,1,1.34,2.48,15.66,15.66,0,0,1,.87,2.84,14.34,14.34,0,0,1,.33,3.09,14,14,0,0,1-.75,4.58,15.72,15.72,0,0,1-2.11,4.09,20.21,20.21,0,0,1-3.24,3.52,25.06,25.06,0,0,1-4.13,2.87v.11c1,.82,2.07,1.8,3.22,2.92s2.3,2.28,3.43,3.47,2.2,2.36,3.2,3.5,1.83,2.16,2.52,3l-2.55,2.17-2.2-2.65q-1.35-1.62-3.06-3.49c-1.14-1.24-2.39-2.5-3.72-3.77a43.59,43.59,0,0,0-4.15-3.51,7.59,7.59,0,0,1-2.06.63,14,14,0,0,1-2.54.22,12.34,12.34,0,0,1-2.36-.22,7.38,7.38,0,0,1-2.08-.7A4.17,4.17,0,0,1,225,537.1a3.24,3.24,0,0,1-.55-1.91,2.85,2.85,0,0,1,1.18-2.5,5.2,5.2,0,0,1,3.07-.84,10.65,10.65,0,0,1,3.35.6,14.31,14.31,0,0,1,3.68,1.92,19.15,19.15,0,0,0,3.18-1.62,15.45,15.45,0,0,0,3.16-2.66,14,14,0,0,0,2.42-3.69,11.43,11.43,0,0,0,1-4.8,14.1,14.1,0,0,0-.51-3.74,10.82,10.82,0,0,0-1.55-3.35,8.38,8.38,0,0,0-2.6-2.43,6.87,6.87,0,0,0-3.66-.94,6.65,6.65,0,0,0-2.85.57,5.79,5.79,0,0,0-2,1.51,6.51,6.51,0,0,0-1.19,2.14,7.91,7.91,0,0,0-.39,2.46,7.11,7.11,0,0,0,.44,2.52,5.88,5.88,0,0,0,1.32,2.11,6.35,6.35,0,0,0,2.19,1.45,8.11,8.11,0,0,0,3.08.54l.82,0a7.8,7.8,0,0,0,.94-.12Z"/><path class="cls-6" d="M260.91,553.77h-3.19a8.1,8.1,0,0,0-2.65.38,5.7,5.7,0,0,0-1.88,1,4,4,0,0,0-1.11,1.45,4.16,4.16,0,0,0-.37,1.7,3.83,3.83,0,0,0,.4,1.7,3.77,3.77,0,0,0,1.17,1.36,5.86,5.86,0,0,0,1.95.89,10.23,10.23,0,0,0,2.75.32,13.93,13.93,0,0,0,2.61-.23,21.42,21.42,0,0,0,2.75-.73l.88,3.51a20.1,20.1,0,0,1-2.75.79,13.67,13.67,0,0,1-3,.3,14.2,14.2,0,0,1-4.17-.59A10.05,10.05,0,0,1,251,564a7.56,7.56,0,0,1-2.15-2.65,7.73,7.73,0,0,1-.78-3.5,7,7,0,0,1,.81-3.47,7.13,7.13,0,0,1,2.13-2.4,9.19,9.19,0,0,1,3-1.4,13.75,13.75,0,0,1,3.44-.44h3.4Z"/><path class="cls-6" d="M255.73,498.86a3.53,3.53,0,0,1,.93-2.53,3.21,3.21,0,0,1,2.41-1,3.33,3.33,0,0,1,1.37.28,3.37,3.37,0,0,1,1.12.76,3.52,3.52,0,0,1,.73,1.16,3.87,3.87,0,0,1,.26,1.46,3.44,3.44,0,0,1-.95,2.55,3.23,3.23,0,0,1-2.39,1,3.52,3.52,0,0,1-1.39-.27,3.28,3.28,0,0,1-1.1-.74,3.63,3.63,0,0,1-.73-1.16A4,4,0,0,1,255.73,498.86Z"/><path class="cls-6" d="M302.28,550.28l-1.08.41a11.81,11.81,0,0,1-1.54.43q-.9.18-2,.33a21.49,21.49,0,0,1-11-1.57A22.48,22.48,0,0,1,280,545a41.94,41.94,0,0,1-5.72-7.63q-2.65-4.47-5.48-10l3-1.64a8.9,8.9,0,0,0,2.14,2.94,3.71,3.71,0,0,0,2.37.84,3.86,3.86,0,0,0,3.33-1.73,8,8,0,0,0,1.22-4.66,17.58,17.58,0,0,0-.25-2.78,20.16,20.16,0,0,0-.77-3.06,26,26,0,0,0-1.28-3.17,22.26,22.26,0,0,0-1.84-3.09H265v-3.34h50.92V511h-6.15v40.34H306V536.13l-.12,0a10.05,10.05,0,0,1-3.54,2.51,11,11,0,0,1-4.16.8,9.84,9.84,0,0,1-7.8-3.51,11,11,0,0,1-2-3.62,13.39,13.39,0,0,1-.66-4.15,12.37,12.37,0,0,1,.63-3.92,10.41,10.41,0,0,1,1.86-3.4,9.08,9.08,0,0,1,3-2.39,9.35,9.35,0,0,1,4.19-.89,10.37,10.37,0,0,1,2.42.27,9.84,9.84,0,0,1,2.14.81,13,13,0,0,1,2,1.26,21.71,21.71,0,0,1,1.89,1.64l.12,0V511H280.66a28,28,0,0,1,2.93,6.4,20.39,20.39,0,0,1,.94,5.79,13.07,13.07,0,0,1-.59,4,9.66,9.66,0,0,1-1.68,3.2,8.09,8.09,0,0,1-2.67,2.12,7.76,7.76,0,0,1-3.5.78l-.06.12a38.52,38.52,0,0,0,4.45,7,23.54,23.54,0,0,0,4.6,4.38,15.26,15.26,0,0,0,4.66,2.26,17.5,17.5,0,0,0,4.66.64,17.23,17.23,0,0,0,2.46-.16c.76-.11,1.47-.24,2.14-.4a16.58,16.58,0,0,0,1.81-.51q.82-.27,1.47-.51ZM306,526.34q-.58-.78-1.38-1.71a13.92,13.92,0,0,0-1.78-1.73,9.75,9.75,0,0,0-2.23-1.33,6.89,6.89,0,0,0-2.73-.53,6,6,0,0,0-2.79.63,6.28,6.28,0,0,0-2.05,1.66,7,7,0,0,0-1.26,2.34,8.57,8.57,0,0,0-.43,2.7,8.82,8.82,0,0,0,.43,2.74,7.35,7.35,0,0,0,1.26,2.38,6.2,6.2,0,0,0,2.06,1.7,6,6,0,0,0,2.81.65,8.8,8.8,0,0,0,2.58-.43,7.58,7.58,0,0,0,2.64-1.43,8.13,8.13,0,0,0,2-2.65,9.07,9.07,0,0,0,.82-4.08Z"/><path class="cls-6" d="M357.33,511h-6.15v40.34h-3.75V523.24a10.71,10.71,0,0,0-1.83-.57,8.63,8.63,0,0,0-1.78-.19,5.54,5.54,0,0,0-2.47.52,5.3,5.3,0,0,0-1.82,1.47,6.56,6.56,0,0,0-1.13,2.24,10.31,10.31,0,0,0-.38,2.86c0,.25,0,.53,0,.83s.05.59.09.87h-3.52c-.17-1.29-.38-2.49-.61-3.61a11.35,11.35,0,0,0-1-2.87,5.21,5.21,0,0,0-1.63-1.89,4.36,4.36,0,0,0-2.55-.69,5.16,5.16,0,0,0-2.56.62,5.4,5.4,0,0,0-1.83,1.7,7.82,7.82,0,0,0-1.1,2.59,13.59,13.59,0,0,0-.37,3.27,15.2,15.2,0,0,0,1.19,6.08,18.72,18.72,0,0,0,3.18,5,24.32,24.32,0,0,0,4.58,4,47.78,47.78,0,0,0,5.38,3.18l-1.88,3.13a25.58,25.58,0,0,1-2.66-1.42,32.87,32.87,0,0,1-3.43-2.34,37.46,37.46,0,0,1-3.65-3.22,24.87,24.87,0,0,1-3.29-4.09,22.13,22.13,0,0,1-2.39-4.91,17.08,17.08,0,0,1-.92-5.7,15,15,0,0,1,.7-4.73,11.26,11.26,0,0,1,1.95-3.63,8.53,8.53,0,0,1,6.75-3.15A7.87,7.87,0,0,1,331,519a7.74,7.74,0,0,1,2.06,1,7.91,7.91,0,0,1,1.67,1.55,11.71,11.71,0,0,1,1.29,2l.15,0a8.22,8.22,0,0,1,1.34-2.14,7.7,7.7,0,0,1,1.73-1.43,6.69,6.69,0,0,1,2-.79,9.91,9.91,0,0,1,2.18-.24,10.12,10.12,0,0,1,2,.21,10,10,0,0,1,2,.61V511H313.88v-3.34h43.45Z"/><path class="cls-6" d="M372.18,511H366v40.34h-3.75V511h-7v-3.34h16.9Z"/></g></svg>