<svg xmlns="http://www.w3.org/2000/svg" viewBox="0 0 2020.57 718.1"><defs><style>.a{fill:#4c9fc8;}.b{fill:#ebbc4e;}.c{fill:none;}</style></defs><title>logo</title><path class="a" d="M576.31,602.64l-8-9c9.73-8.68,19.69-17.39,29.6-25.91l7.82,9.1C595.9,585.34,586,594,576.31,602.64Z" transform="translate(-194 -240.95)"/><path class="b" d="M871.61,820.21a6,6,0,0,1-3-11.21A248.24,248.24,0,0,0,994,593.66c0-129.5-105.36-234.86-234.86-234.86A221.82,221.82,0,0,0,617.4,409.68a6,6,0,1,1-7.62-9.26A233.91,233.91,0,0,1,759.14,346.8,246.85,246.85,0,0,1,1006,593.66,259.46,259.46,0,0,1,874.57,819.43,6,6,0,0,1,871.61,820.21Z" transform="translate(-194 -240.95)"/><path class="a" d="M779.91,594.6a6,6,0,0,1-5.08-2.82C746.75,547,688,463.86,610.17,410c-38.65-26.75-78.66-39.33-79.06-39.46a281.57,281.57,0,0,0-39.66-9,258.17,258.17,0,0,0-37.91-2.69,248.33,248.33,0,0,0-58.69,7A6,6,0,0,1,392,354.14a260.71,260.71,0,0,1,61.53-7.34,269.59,269.59,0,0,1,39.66,2.82,295.29,295.29,0,0,1,41.47,9.44A335.59,335.59,0,0,1,617,400.12c79.62,55.1,139.43,139.74,168,185.29a6,6,0,0,1-5.08,9.19Z" transform="translate(-194 -240.95)"/><path class="a" d="M440.86,853.2A246.85,246.85,0,0,1,194,606.34,259.46,259.46,0,0,1,325.43,380.57,6,6,0,0,1,331.36,391,248.24,248.24,0,0,0,206,606.34c0,129.5,105.36,234.86,234.86,234.86A222,222,0,0,0,582.6,790.32a6,6,0,1,1,7.62,9.26A233.91,233.91,0,0,1,440.86,853.2Z" transform="translate(-194 -240.95)"/><path class="b" d="M746.46,853.2a269.59,269.59,0,0,1-39.66-2.82,293.21,293.21,0,0,1-41.47-9.44A335.59,335.59,0,0,1,583,799.88c-79.62-55.1-139.43-139.74-168-185.29a6,6,0,1,1,10.16-6.37C453.25,653,512,736.14,589.83,790c38.57,26.69,78.66,39.33,79.06,39.46a280.44,280.44,0,0,0,39.66,9,256.79,256.79,0,0,0,37.91,2.7,248.39,248.39,0,0,0,58.69-7A6,6,0,1,1,808,845.86,260.56,260.56,0,0,1,746.46,853.2Z" transform="translate(-194 -240.95)"/><path class="b" d="M602.07,632.23l-7.82-9.1c9.81-8.44,19.72-17.11,29.44-25.77l8,9C621.9,615,611.94,623.74,602.07,632.23Z" transform="translate(-194 -240.95)"/><path class="a" d="M782.59,618.14a6,6,0,0,1-.22-12c4.37-.16,10.16-2.39,15.49-6,5.59-3.75,9.13-9.12,9.35-11-.94-1.16-3.23-1.81-6.2-1.75-9.28.19-22.81,6.87-28.49,17.33A6,6,0,1,1,762,599c8.14-15,26.06-23.34,38.8-23.59,7.83-.15,13.83,2.64,17,7.87,5.59,9.38-5.12,21.45-13.18,26.86-7.2,4.83-15.12,7.75-21.73,8Z" transform="translate(-194 -240.95)"/><path class="a" d="M778.25,687.63c11.58,0,11.6-18,0-18s-11.6,18,0,18Z" transform="translate(-194 -240.95)"/><path class="b" d="M398.62,624.59c-7.52,0-13.3-2.79-16.34-7.88-5.59-9.38,5.12-21.45,13.18-26.86,7.2-4.83,15.12-7.75,21.73-8a6,6,0,0,1,.44,12c-4.37.16-10.16,2.39-15.49,6-5.6,3.76-9.13,9.12-9.35,11,.94,1.16,3.22,1.81,6.2,1.74,9.28-.18,22.81-6.86,28.49-17.32A6,6,0,0,1,438,601c-8.14,15-26.06,23.35-38.8,23.6Z" transform="translate(-194 -240.95)"/><path class="b" d="M421.75,530.37c11.58,0,11.6-18,0-18s-11.6,18,0,18Z" transform="translate(-194 -240.95)"/><path class="b" d="M598.16,633.68a6,6,0,0,1-4.48-2c-8.63-9.7-17.35-19.65-25.91-29.6A2223.36,2223.36,0,0,1,388.4,363.23c-20.48-31.52-40.49-64.19-59.48-97.08a6,6,0,0,1-.72-4c.53-3.24.16-5.87-1-7.21-2-2.28-7-2.24-8.44-1.81-.71.65-7.21,8.4,2,65.35,5.1,31.4,12.59,62.64,13.42,65.72A1054.9,1054.9,0,0,0,411,584.38c.39.79.8,1.49,1.17,2.1.17.3.33.57.46.81a6,6,0,0,1-10.45,5.89l-.36-.62c-.41-.69-1-1.65-1.54-2.79A1067,1067,0,0,1,322.6,387.34c-.94-3.49-8.82-36.25-14.08-69.42-9.71-61.32-2.47-72.81,5.89-76,4.52-1.71,15.53-2,21.75,5.07,3.3,3.72,4.72,8.83,4.16,14.87,18.59,32.12,38.14,64,58.14,94.8A2210,2210,0,0,0,576.87,594.24c8.51,9.9,17.19,19.8,25.77,29.45a6,6,0,0,1-4.48,10ZM318.78,253.11Z" transform="translate(-194 -240.95)"/><path class="a" d="M879,959.05c-5,0-11.12-1.48-15.18-6.08-3.3-3.72-4.72-8.83-4.16-14.87-18.59-32.13-38.15-64-58.14-94.8A2211.93,2211.93,0,0,0,623.13,605.76c-8.52-9.91-17.19-19.81-25.77-29.45a6,6,0,1,1,9-8c8.62,9.69,17.34,19.65,25.91,29.6A2223,2223,0,0,1,811.6,836.77c20.47,31.52,40.48,64.18,59.48,97.07a6,6,0,0,1,.72,4c-.53,3.24-.16,5.87,1,7.21,2,2.28,7,2.24,8.44,1.81.71-.65,7.21-8.4-2-65.35-5.1-31.4-12.6-62.64-13.42-65.72A1054.9,1054.9,0,0,0,789,615.62c-.4-.79-.81-1.49-1.17-2.11-.17-.29-.33-.56-.46-.8a6,6,0,0,1,10.45-5.89c.1.18.22.39.36.61.41.7,1,1.66,1.54,2.8A1067.21,1067.21,0,0,1,877.4,812.66c.94,3.49,8.82,36.25,14.08,69.42,9.71,61.32,2.47,72.81-5.89,76A19.57,19.57,0,0,1,879,959.05Zm2.19-12.16Z" transform="translate(-194 -240.95)"/><path class="a" d="M1261.74,527.43c0,13.56-11.65,21.37-27.26,21.37h-33.67a.68.68,0,0,1-.77-.77V460a.68.68,0,0,1,.77-.77H1230c14.21,0,27,6.65,27,21.5,0,10.37-6.4,19.33-19.84,22.66C1253,506.05,1261.74,515.65,1261.74,527.43Zm-58.5-65.29v40.07h21.51c20.1,0,28.93-10.11,28.93-21.51,0-12.8-11.14-18.56-23.68-18.56Zm55.17,65.16c0-12.16-10.75-22.15-30.46-22.15h-24.71v40.71h31.24C1248.3,545.86,1258.41,539.07,1258.41,527.3Z" transform="translate(-194 -240.95)"/><path class="a" d="M1308.84,548V460a.68.68,0,0,1,.77-.77h1.67a.73.73,0,0,1,.76.77v85.89h43.53a.73.73,0,0,1,.76.77V548a.67.67,0,0,1-.76.77h-46A.74.74,0,0,1,1308.84,548Z" transform="translate(-194 -240.95)"/><path class="a" d="M1390.51,504c0-25.47,21-46.21,46.46-46.21a46.21,46.21,0,1,1,0,92.42C1411.5,550.21,1390.51,529.47,1390.51,504Zm89.6,0A43.14,43.14,0,1,0,1437,547.27,43.27,43.27,0,0,0,1480.11,504Z" transform="translate(-194 -240.95)"/><path class="a" d="M1523,504c0-25,17.92-46.21,48.38-46.21,12.29,0,21,3.58,28.29,8.83.39.26.51.51.26,1l-.64,1.28c-.26.38-.64.64-1,.25-7-5.12-15.1-8.45-26.88-8.45-28.42,0-45.06,19.84-45.06,43.27s16.64,43.27,45.06,43.27c11.78,0,19.84-3.33,26.88-8.45.39-.39.77-.13,1,.25l.77,1.41c.12.39.12.77-.13.9-7.55,5.37-16.13,8.83-28.55,8.83C1540.91,550.21,1523,529,1523,504Z" transform="translate(-194 -240.95)"/><path class="a" d="M1666.09,529.09l-17.15-19.33V548a.68.68,0,0,1-.77.77h-1.66a.73.73,0,0,1-.77-.77V460a.68.68,0,0,1,.77-.77h1.66a.74.74,0,0,1,.77.77v46.46l40.32-46.85c.26-.38.51-.38.9-.38H1693c.39,0,.64.38.13.89l-41.47,48.13,17,18.69c9.09,11.14,18.43,20,27.27,20a20.52,20.52,0,0,0,9.85-2.94.7.7,0,0,1,1,.25l1,1.41c.26.39.13.9-.64,1.41a25.82,25.82,0,0,1-11.26,3.2C1685.42,550.21,1676.2,540.48,1666.09,529.09Z" transform="translate(-194 -240.95)"/><path class="a" d="M1739.82,504c0-25,17.92-46.21,48.38-46.21,12.29,0,21,3.58,28.29,8.83a.68.68,0,0,1,.26,1l-.64,1.28c-.26.38-.64.64-1,.25-7-5.12-15.1-8.45-26.88-8.45-28.42,0-45.06,19.84-45.06,43.27s16.64,43.27,45.06,43.27c11.78,0,19.84-3.33,26.88-8.45.39-.39.77-.13,1,.25l.76,1.41c.13.39.13.77-.12.9-7.55,5.37-16.13,8.83-28.55,8.83C1757.74,550.21,1739.82,529,1739.82,504Z" transform="translate(-194 -240.95)"/><path class="a" d="M1862.57,548V460a.67.67,0,0,1,.76-.77H1865a.74.74,0,0,1,.77.77v44.8h55.93V460a.74.74,0,0,1,.77-.77h1.67a.73.73,0,0,1,.76.77V548a.67.67,0,0,1-.76.77h-1.67a.74.74,0,0,1-.77-.77V507.71h-55.93V548a.74.74,0,0,1-.77.77h-1.67A.73.73,0,0,1,1862.57,548Z" transform="translate(-194 -240.95)"/><path class="a" d="M1967.65,547.91l36.49-88.07a.81.81,0,0,1,.89-.64h3.33a.83.83,0,0,1,.9.64l36.48,88.07c.25.64-.13.89-.64.89h-2a.82.82,0,0,1-.9-.64l-8.32-20.22h-54.4l-8.32,20.22a.82.82,0,0,1-.9.64h-1.92C1967.78,548.8,1967.4,548.55,1967.65,547.91Zm65-22.92-26-63.1-26,63.1Z" transform="translate(-194 -240.95)"/><path class="a" d="M2088.49,548V460a.67.67,0,0,1,.76-.77h1.67a.74.74,0,0,1,.77.77V548a.68.68,0,0,1-.77.77h-1.67A.73.73,0,0,1,2088.49,548Z" transform="translate(-194 -240.95)"/><path class="a" d="M2146.21,548V460a.68.68,0,0,1,.77-.77h1.79a1.57,1.57,0,0,1,1,.51l61.57,83.84V460a.68.68,0,0,1,.77-.77h1.66a.74.74,0,0,1,.77.77V548a.68.68,0,0,1-.77.77H2212a1.57,1.57,0,0,1-1-.51l-61.57-84V548a.73.73,0,0,1-.77.77H2147A.74.74,0,0,1,2146.21,548Z" transform="translate(-194 -240.95)"/><path class="a" d="M1188.65,738.37l34.44-85.51a2.4,2.4,0,0,1,2.56-1.66h4.73a2.35,2.35,0,0,1,2.43,1.66l34.57,85.51c.51,1.54-.13,2.43-1.67,2.43H1263a2.35,2.35,0,0,1-2.43-1.66l-7.42-18.31h-50.44l-7.29,18.31a2.51,2.51,0,0,1-2.56,1.66h-2.56C1188.78,740.8,1188,739.91,1188.65,738.37Zm62.47-23.3L1228,657.34l-23,57.73Z" transform="translate(-194 -240.95)"/><path class="a" d="M1370.41,653.37v1.41a1.92,1.92,0,0,1-2,2.18h-30.85v81.67a1.92,1.92,0,0,1-2,2.17H1333a2,2,0,0,1-2.18-2.17V657h-30.72a2,2,0,0,1-2.18-2.18v-1.41a2,2,0,0,1,2.18-2.17h68.23A1.92,1.92,0,0,1,1370.41,653.37Z" transform="translate(-194 -240.95)"/><path class="b" d="M1471.27,707.52V655.81a4.24,4.24,0,0,1,4.61-4.61h4.35c3,0,4.61,1.66,4.61,4.61v51.71c0,15.11,10.24,22.53,22,22.53s22.14-7.42,22.14-22.53V655.81c0-2.95,1.67-4.61,4.61-4.61h4.23c2.94,0,4.73,1.66,4.73,4.61v51.71c0,22.79-16.38,34.69-35.71,34.69S1471.27,730.31,1471.27,707.52Z" transform="translate(-194 -240.95)"/><path class="b" d="M1584.94,696c0-25,18-46.21,48.51-46.21,11.14,0,19.2,2.82,26.11,7.3,2.43,1.66,3,3.71,1.54,6.4l-1.15,2c-1.41,2.56-3.59,3.08-6.4,1.54a43.79,43.79,0,0,0-20.1-5.12c-22,0-34.69,15.62-34.69,34s12.67,34,34.69,34a43.79,43.79,0,0,0,20.1-5.12c2.81-1.54,5-1,6.4,1.54l1.15,2c1.41,2.69,1.15,4.48-.77,5.89-7,4.74-15.23,7.81-26.88,7.81C1603,742.21,1584.94,721,1584.94,696Z" transform="translate(-194 -240.95)"/><path class="b" d="M1704.61,736.19V655.81c0-2.95,1.67-4.61,4.61-4.61h4.35c3,0,4.61,1.66,4.61,4.61v80.38c0,2.95-1.66,4.61-4.61,4.61h-4.35C1706.28,740.8,1704.61,739.14,1704.61,736.19Z" transform="translate(-194 -240.95)"/><path class="c" d="M440.86,841.2a221.69,221.69,0,0,0,135.54-46C502.82,742.08,446.91,664.67,418.11,619.5a45.55,45.55,0,0,1-18.88,5.08h-.61c-7.52,0-13.3-2.79-16.34-7.88-5.59-9.38,5.12-21.45,13.18-26.86,1.21-.82,2.45-1.57,3.7-2.28a1069.37,1069.37,0,0,1-74.47-192.63A248.24,248.24,0,0,0,206,606.34C206,735.84,311.36,841.2,440.86,841.2Z" transform="translate(-194 -240.95)"/><path class="c" d="M881.27,946.84c.71-.65,7.21-8.4-2-65.35-5.1-31.4-12.6-62.64-13.42-65.72A1055.4,1055.4,0,0,0,789.74,617a31.71,31.71,0,0,1-6.93,1.1h-.22a6,6,0,0,1-.22-12c4.37-.16,10.16-2.39,15.49-6,5.59-3.75,9.13-9.12,9.35-11-.94-1.16-3.23-1.81-6.2-1.75-5.19.11-11.71,2.24-17.44,5.93-.15.12-.31.23-.47.34l-.09,0a32.11,32.11,0,0,0-10.49,11A6,6,0,1,1,762,599a41.78,41.78,0,0,1,9.88-11.92C742.73,541.39,685.38,462,610.17,410c-38.65-26.75-78.66-39.33-79.06-39.46a281.57,281.57,0,0,0-39.66-9,258.17,258.17,0,0,0-37.91-2.69,249.22,249.22,0,0,0-50.33,5.13,2210.36,2210.36,0,0,0,169.7,225.68c8.27-7.32,16.66-14.65,25-21.84h0a6,6,0,0,1,8.39.56c8.62,9.69,17.34,19.65,25.91,29.6A2223,2223,0,0,1,811.6,836.77c20.47,31.52,40.48,64.18,59.48,97.07a6,6,0,0,1,.72,4c-.53,3.24-.16,5.87,1,7.21C874.85,947.31,879.8,947.27,881.27,946.84Zm-103-259.21c-11.6,0-11.58-18,0-18S789.83,687.63,778.25,687.63Z" transform="translate(-194 -240.95)"/><path class="c" d="M668.89,829.48a280.44,280.44,0,0,0,39.66,9,256.79,256.79,0,0,0,37.91,2.7,250,250,0,0,0,50.33-5.13,2211.46,2211.46,0,0,0-169.7-225.68c-8.27,7.32-16.63,14.63-24.94,21.77h0l-.08.06h0a6,6,0,0,1-8.39-.55c-8.63-9.7-17.35-19.65-25.91-29.6A2223.36,2223.36,0,0,1,388.4,363.23c-20.48-31.52-40.49-64.19-59.48-97.08a6,6,0,0,1-.72-4c.53-3.24.16-5.87-1-7.21-2-2.28-7-2.24-8.44-1.81-.71.65-7.21,8.4,2,65.35,5.1,31.4,12.59,62.64,13.42,65.72A1055.14,1055.14,0,0,0,410.26,583a31.71,31.71,0,0,1,6.93-1.1,6,6,0,0,1,.44,12c-4.37.16-10.16,2.39-15.49,6-5.6,3.76-9.13,9.12-9.35,11,.94,1.16,3.22,1.81,6.2,1.74,5.19-.1,11.7-2.23,17.43-5.92l.48-.34.1-.05a32.14,32.14,0,0,0,10.48-11A6,6,0,0,1,438,601a41.55,41.55,0,0,1-9.89,11.93C457.26,658.6,514.62,738,589.83,790,628.4,816.71,668.49,829.35,668.89,829.48ZM421.75,530.37c-11.6,0-11.58-18,0-18S433.33,530.37,421.75,530.37Z" transform="translate(-194 -240.95)"/><path class="c" d="M759.14,358.8a221.58,221.58,0,0,0-135.55,46c73.59,53.14,129.5,130.55,158.3,175.72a45.55,45.55,0,0,1,18.88-5.08c7.83-.15,13.83,2.64,17,7.87,5.59,9.38-5.12,21.45-13.18,26.86-1.21.82-2.45,1.57-3.7,2.28a1068.91,1068.91,0,0,1,74.47,192.63A248.26,248.26,0,0,0,994,593.66C994,464.16,888.64,358.8,759.14,358.8Z" transform="translate(-194 -240.95)"/></svg>