<svg width="29" height="27" xmlns="http://www.w3.org/2000/svg" version="1.1" data-darkreader-mode="static">
 <metadata id="metadata16" background-color="rgb(26, 23, 36) !important" color="rgb(255, 255, 255) !important" border-color="rgb(38, 36, 59) !important" font-family="Cartograph CF !important">image/svg+xml</metadata>

 <g>
  <title>Layer 1</title>
  <path id="path2" font-size="141.034" aria-label="Mi" d="m10.573,19.18204c-0.363,-0.513 -1.08,-0.696 -1.09,0l0,3.214c0,1.291 -0.47,2.408 -1.412,3.35c-0.915,0.914 -2.031,1.371 -3.35,1.371c-1.29,0 -2.407,-0.457 -3.349,-1.372c-0.914,-0.941 -1.372,-2.058 -1.372,-3.349l0,-17.675c0,-0.995 0.283,-1.896 0.848,-2.703c0.591,-0.834 1.345,-1.413 2.26,-1.735c0.51659,-0.18938 1.06279,-0.28522 1.613,-0.283c1.453,0 2.664,0.565 3.632,1.695l4.832,5.608c0.108,0.08 0.424,0.697 1.18,0.697c0.758,0 1.115,-0.617 1.222,-0.698l4.791,-5.607c0.996,-1.13 2.22,-1.695 3.673,-1.695c0.538,0 1.076,0.094 1.614,0.283c0.914,0.322 1.654,0.9 2.22,1.735c0.591,0.807 0.887,1.708 0.887,2.703l0,17.675c0,1.291 -0.47,2.408 -1.412,3.35c-0.915,0.914 -2.032,1.371 -3.35,1.371c-1.291,0 -2.407,-0.457 -3.35,-1.372c-0.914,-0.941 -1.371,-2.058 -1.371,-3.349l0,-3.214c-0.08,-0.877 -0.855,-0.324 -1.13,0c-0.726,1.345 -2.118,2.173 -3.793,2.18l-3.793,-2.18z" background-color="rgb(26, 23, 36) !important" color="rgb(224, 222, 245) !important" border-color="rgb(38, 36, 59) !important" font-family="Cartograph CF !important"/>
 </g>
</svg>