<svg version="1.1" id="svg20" sodipodi:docname="expoverse.svg" inkscape:version="1.2.1 (9c6d41e410, 2022-07-14, custom)" xmlns:inkscape="http://www.inkscape.org/namespaces/inkscape" xmlns:sodipodi="http://sodipodi.sourceforge.net/DTD/sodipodi-0.dtd" xmlns="http://www.w3.org/2000/svg" xmlns:svg="http://www.w3.org/2000/svg" viewBox="0 0 81.98 69.03">
  <sodipodi:namedview id="namedview22" pagecolor="#ffffff" bordercolor="#666666" borderopacity="1.0" inkscape:showpageshadow="2" inkscape:pageopacity="0.0" inkscape:pagecheckerboard="0" inkscape:deskcolor="#d1d1d1" showgrid="false" inkscape:zoom="0.85877061" inkscape:cx="238.71334" inkscape:cy="69.867319" inkscape:window-width="1470" inkscape:window-height="1268" inkscape:window-x="0" inkscape:window-y="0" inkscape:window-maximized="1" inkscape:current-layer="g16"/>
  <defs id="defs9">
    <style id="style2">.e{fill:url(#d);}.f{fill:#171620;}</style><style class="darkreader darkreader--sync" media="screen"/>
    <linearGradient id="d" x1="26.63" y1="-3.3" x2="61.57" y2="57.2" gradientTransform="matrix(1, 0, 0, 1, 0, 0)" gradientUnits="userSpaceOnUse">
      <stop offset="0" stop-color="#e41ff4" id="stop4" style="--darkreader-inline-stopcolor: #aa09b8;" data-darkreader-inline-stopcolor=""/>
      <stop offset="1" stop-color="#74f0ff" id="stop6" style="--darkreader-inline-stopcolor: #007b8a;" data-darkreader-inline-stopcolor=""/>
    </linearGradient>
  </defs>
  <g id="a"/>
  <g id="b">
    <g id="c">
      <g id="g16">
        <path class="e" d="M49.52,29.52c3.66,6.33,7.31,12.66,10.96,18.98l-2.34,2.66c-2.99-5.18-5.98-10.37-8.97-15.55-.45-.78-.88-1.56-1.36-2.33-.19-.3-.17-.51,0-.81,.52-.87,1-1.76,1.49-2.64,.06-.1,.14-.2,.22-.32Zm-16.69,28.9c-.14,.24-.28,.48-.42,.72l8.71,9.87c-2.4-4.15-4.8-8.31-7.2-12.47-.39,.66-.74,1.27-1.09,1.87Zm12.33-21.34c-.44,.76-.87,1.52-1.32,2.28-.12,.21-.12,.35,0,.56,3.2,5.52,6.39,11.05,9.58,16.58l2.34-2.65c-3.38-5.85-6.75-11.69-10.14-17.55-.17,.3-.32,.54-.46,.78Zm10.44-3.83c.65,1.12,1.29,2.25,1.94,3.37h13.4l3-3.41c-.23,0-.47,0-.7,0-5.88,0-11.77,.02-17.65,.04Zm-14.39,10.66c-.42,.72-.82,1.45-1.25,2.16-.15,.25-.12,.43,.01,.66,1.52,2.62,3.03,5.24,4.55,7.86,1.4,2.42,2.8,4.84,4.19,7.26l2.34-2.65c-3.11-5.38-6.21-10.75-9.32-16.15-.19,.32-.35,.59-.51,.87Zm-4.17,7.22c-.33,.57-.65,1.15-.99,1.71-.13,.22-.13,.38,0,.59,2.14,3.69,4.27,7.38,6.4,11.07,.52,.89,1.03,1.79,1.55,2.68l2.34-2.66c-2.84-4.92-5.67-9.82-8.52-14.75-.29,.5-.53,.93-.78,1.36Zm22.45-11.12c.65,1.12,1.29,2.24,1.94,3.36h3.56l2.96-3.36c-2.82,0-5.64,0-8.46,0Zm-6.38-11c.17,.28,.34,.57,.51,.85h23.28l2.97-3.37c-1.11,0-2.23-.02-3.34-.02-4.33,0-8.67,.02-13,.03-3.96,0-7.92,0-11.89,0,.49,.84,.98,1.68,1.47,2.51Zm.58-5.91c1.05,0,2.1,0,3.16,0,.26,0,.39-.09,.51-.3,2.59-4.5,5.2-9,7.79-13.51l2.34-4.05-2.4-2.57c-3.92,6.8-7.84,13.59-11.77,20.39,.15,.01,.26,.02,.36,.02Zm24.04,.03c.89,0,1.78-.01,2.66-.04,.1,0,.25-.07,.3-.16,.43-.74,.84-1.48,1.26-2.21l-2.4-2.57c-.96,1.66-1.92,3.32-2.88,4.98,.4,0,.72,0,1.05,0ZM2.05,24.42c1.18,.01,2.35,0,3.62,0-.51,.88-1.02,1.76-1.53,2.64l2.33,2.64c.88-1.52,1.76-3.04,2.63-4.56,.33-.57,.67-.79,1.32-.74,.87,.06,1.76,.02,2.63,.02h.41c-1.54,2.67-3.08,5.33-4.61,7.99l2.34,2.65c2-3.45,3.99-6.91,5.98-10.36,.12-.21,.25-.29,.49-.28,1.06,.01,2.13,0,3.19,0,.11,0,.22,0,.41,.02-2.57,4.44-5.13,8.88-7.69,13.32l2.34,2.65c2.48-4.3,4.97-8.6,7.45-12.9,.52-.9,1.05-1.79,1.55-2.7,.16-.29,.33-.41,.67-.4,1.07,.03,2.15,0,3.22,.01,.06,0,.11,.01,.24,.02-3.59,6.22-7.18,12.44-10.77,18.65l2.34,2.65c.54-.93,1.07-1.86,1.61-2.79,3.51-6.08,7.02-12.16,10.53-18.24,.13-.23,.28-.31,.55-.31,1.15,.02,2.31,0,3.56,0-4.63,8.02-9.25,16.02-13.87,24.02l2.34,2.65,.02-.03c.44-.75,.9-1.49,1.34-2.25,1.23-2.14,2.45-4.29,3.68-6.43,2.78-4.82,5.57-9.64,8.35-14.46,.61-1.05,1.22-2.1,1.81-3.15,.14-.25,.29-.36,.59-.36,1.05,.02,2.1,0,3.16,0,.1,0,.2,0,.37,.02-5.65,9.79-11.3,19.57-16.95,29.35l2.34,2.65c.61-1.06,1.22-2.11,1.83-3.17,3.68-6.37,7.36-12.74,11.04-19.11,1.58-2.74,3.16-5.48,4.75-8.22,.25-.43,.51-.85,.79-1.26,.01-.02,.05-.02,.08-.04,.02-.05,.02-.09,.05-.14,2.05-3.54,4.09-7.08,6.14-10.62,2.65-4.6,5.31-9.19,7.96-13.79L62.59,0H20.92L0,22.38l1.89,2.14c.06-.02,.08-.1,.16-.1Zm59.37-1.31c1.1,0,2.2,0,3.29,0,.2,0,.31-.07,.41-.24,2.4-4.15,4.79-8.31,7.19-12.46l-2.4-2.56c-2.93,5.08-5.86,10.15-8.8,15.23,.14,.01,.22,.03,.3,.03Zm7.79,0c1.1,0,2.2,0,3.29,0,.2,0,.31-.06,.41-.23,.29-.53,.59-1.04,.9-1.56,.47-.8,.96-1.6,1.43-2.41,.64-1.1,1.28-2.21,1.92-3.31l-2.42-2.59c-1.94,3.36-3.88,6.72-5.82,10.08,.14,.01,.21,.02,.29,.03Z" id="path14"/>
      </g>
    </g>
  </g>
</svg>