<svg version="1.1" id="svg5" xml:space="preserve" inkscape:version="1.2.1 (9c6d41e410, 2022-07-14, custom)" sodipodi:docname="raca.svg" xmlns:inkscape="http://www.inkscape.org/namespaces/inkscape" xmlns:sodipodi="http://sodipodi.sourceforge.net/DTD/sodipodi-0.dtd" xmlns="http://www.w3.org/2000/svg" xmlns:svg="http://www.w3.org/2000/svg" viewBox="44.03 69.43 105.42 112.07"><sodipodi:namedview id="namedview7" pagecolor="#ffffff" bordercolor="#666666" borderopacity="1.0" inkscape:showpageshadow="2" inkscape:pageopacity="0.0" inkscape:pagecheckerboard="0" inkscape:deskcolor="#d1d1d1" inkscape:document-units="mm" showgrid="false" inkscape:zoom="1.829812" inkscape:cx="248.65942" inkscape:cy="546.77748" inkscape:window-width="2516" inkscape:window-height="1343" inkscape:window-x="0" inkscape:window-y="0" inkscape:window-maximized="1" inkscape:current-layer="layer1"/><defs id="defs2"/><g inkscape:label="Layer 1" inkscape:groupmode="layer" id="layer1"><path style="fill: rgb(250, 193, 59); stroke-width: 0.0846667px; --darkreader-inline-fill: #fac64a;" d="m 97.259609,181.43363 c -15.46328,-0.97285 -30.71327,-8.29625 -40.45679,-20.44308 4.4455,1.60367 9.59797,3.01098 14.50659,3.72313 10.21368,1.40602 20.76529,2.14062 30.907691,-0.13282 13.38743,-3.03659 26.4557,-11.25714 32.15684,-24.14723 3.30481,-7.98308 3.11907,-17.01571 1.48134,-25.36775 -0.60149,-3.03455 -1.96302,-6.43263 -3.00796,-8.96051 8.46864,5.08958 14.90559,13.81196 16.10773,23.74907 2.4824,15.80223 -4.80194,32.54571 -17.93416,41.64618 -9.7671,6.80647 -21.83666,10.53421 -33.761281,9.93301 z m -12.065,-18.2916 c -10.92659,-0.46627 -22.2286,-1.83463 -31.990792,-7.0975 -6.212985,-9.4151 -9.524207,-20.79497 -9.105285,-32.07435 2.715843,-14.89534 14.659877,-27.354553 29.195587,-31.301893 6.7768,-1.98989 13.91923,-2.83255 20.95982,-2.59903 -14.33494,2.1202 -26.61269,13.809743 -29.34635,28.051083 -2.92062,13.28051 2.60817,27.92178 13.60947,35.93107 7.4088,5.57899 17.11612,8.16117 26.286351,6.72788 -6.403301,-7.66159 -6.008121,-19.892 0.89231,-27.1117 6.6712,-7.63354 19.10001,-9.04158 27.28334,-3.03692 1.74355,0.76403 0.26896,3.02975 0.20084,4.4649 -3.09029,11.93374 -13.65324,20.42411 -24.79434,24.61907 -7.37457,2.85966 -15.321161,3.80894 -23.190951,3.42739 z m 11.938,-3.50962 c -2.31705,-0.2781 -5.10826,-0.0892 -6.41955,-2.42221 -9.20174,-10.17374 -10.95626,-26.14452 -4.2509,-38.09953 6.3249,-11.99496 20.416541,-19.207723 33.845771,-17.2685 2.73005,0.35355 5.43296,1.02238 7.98209,2.06646 4.02703,6.37149 5.76019,13.95225 5.86777,21.4316 -8.74852,-7.21313 -22.44242,-7.15119 -31.11525,0.15569 -9.030701,7.06409 -11.883171,20.71594 -6.317741,30.76197 0.0665,1.20843 3.402261,3.81958 1.03226,3.42239 -0.20401,-0.0168 -0.42091,-0.0309 -0.62445,-0.0479 z M 44.263348,119.72254 c 1.971693,-22.843443 19.673331,-43.311253 41.995141,-48.5453 7.48723,-1.765094 15.399331,-2.37887 22.985171,-0.948827 5.51563,1.409224 9.91533,7.658894 7.5539,13.256784 -2.2016,5.22936 -8.5169,7.38512 -13.80392,6.3221 -13.701601,-1.35816 -28.441231,-0.65613 -40.488461,6.72386 -8.664209,5.187913 -15.229426,13.645013 -18.238331,23.276023 z" id="path338" data-darkreader-inline-fill=""/></g></svg>